<svg xmlns="http://www.w3.org/2000/svg" width="400" height="400" viewBox="0 0 400 400"><rect width="100%" height="100%" fill="#2a2a2a"/><path fill="#ffffff" d="M82.74 208.14h4.22q1.16 0 1.95-.28t1.26-.75q.48-.46.69-1.08.2-.62.2-1.32 0-.73-.23-1.31t-.73-.99q-.49-.41-1.28-.63-.78-.22-1.88-.22h-4.2zm3.55-15.94h-3.55v6.48h3.32q2.14 0 3.23-.77 1.09-.78 1.09-2.47 0-1.75-.99-2.5-.99-.74-3.1-.74m-7.72-3.22h7.72q2.2 0 3.77.42 1.56.41 2.56 1.19 1 .77 1.47 1.87.46 1.11.46 2.48 0 .8-.23 1.52t-.72 1.34q-.49.63-1.24 1.14t-1.79.87q4.62 1.04 4.62 4.99 0 1.43-.54 2.64-.55 1.21-1.59 2.08-1.03.88-2.55 1.37-1.52.5-3.48.5h-8.46zm19.86-.62h3.83v23.03h-3.83zm16.06 18.92v-2.68q-1.66.08-2.79.29-1.14.21-1.82.53-.68.33-.97.76-.3.44-.3.95 0 1.01.6 1.44.59.43 1.56.43 1.17 0 2.03-.42.86-.43 1.69-1.3m-8.1-8.35-.68-1.23q2.75-2.51 6.61-2.51 1.39 0 2.49.46t1.86 1.27 1.16 1.95q.39 1.13.39 2.48v10.04h-1.74q-.54 0-.83-.16-.3-.17-.47-.66l-.34-1.15q-.6.54-1.18.95-.57.42-1.19.69-.62.28-1.33.43-.7.15-1.55.15-1.01 0-1.86-.27-.86-.27-1.48-.82-.62-.54-.96-1.35-.34-.8-.34-1.87 0-.61.2-1.2.21-.6.66-1.14.46-.54 1.19-1.02.73-.49 1.79-.84 1.06-.36 2.47-.58 1.41-.23 3.23-.27v-.93q0-1.6-.69-2.37-.68-.77-1.97-.77-.93 0-1.54.22t-1.07.49l-.85.49q-.38.22-.84.22-.41 0-.69-.21t-.45-.49m27.83-1.47-1.01 1.39q-.17.22-.33.34-.17.13-.48.13-.29 0-.57-.18t-.67-.41q-.38-.22-.92-.4-.53-.18-1.32-.18-1.01 0-1.77.37-.76.36-1.26 1.04-.51.69-.76 1.65-.24.97-.24 2.2 0 1.27.27 2.26t.78 1.67q.51.67 1.24 1.02t1.64.35q.92 0 1.48-.23.57-.22.96-.49.38-.27.67-.5.29-.22.64-.22.47 0 .7.35l1.1 1.4q-.63.74-1.38 1.25-.74.5-1.54.8t-1.64.43q-.85.12-1.68.12-1.48 0-2.78-.55t-2.28-1.6q-.97-1.06-1.54-2.58-.57-1.53-.57-3.48 0-1.75.51-3.25.5-1.5 1.48-2.59.97-1.09 2.42-1.71 1.44-.62 3.31-.62 1.79 0 3.13.57 1.34.58 2.41 1.65m2.54-9.1h3.83v13.19h.71q.39 0 .61-.1.23-.1.46-.41l3.95-4.89q.25-.32.55-.49t.79-.17h3.5l-4.95 5.9q-.52.7-1.14 1.07.32.23.58.54.25.31.49.67l5.3 7.72h-3.46q-.45 0-.77-.15-.33-.14-.55-.53l-4.06-6.03q-.21-.36-.45-.47-.23-.11-.69-.11h-.87v7.29h-3.83zm40.1 17.74q.34 0 .6.27l1.64 1.78q-1.36 1.69-3.35 2.59t-4.78.9q-2.5 0-4.49-.85-1.99-.86-3.4-2.38t-2.16-3.62q-.76-2.11-.76-4.61 0-2.52.81-4.62t2.27-3.62q1.47-1.52 3.5-2.37 2.03-.84 4.49-.84 2.45 0 4.35.8 1.9.81 3.23 2.11l-1.39 1.94q-.13.19-.32.33-.2.14-.54.14-.23 0-.48-.14-.25-.13-.54-.32-.29-.2-.68-.43t-.9-.42q-.51-.2-1.19-.33-.67-.13-1.55-.13-1.51 0-2.76.53-1.24.54-2.14 1.55-.9 1.02-1.4 2.48-.49 1.47-.49 3.34 0 1.89.53 3.37.54 1.47 1.45 2.48.91 1 2.15 1.54 1.24.53 2.67.53.85 0 1.54-.09t1.27-.29q.59-.21 1.1-.52.52-.32 1.04-.79.15-.14.32-.22.17-.09.36-.09m14.38-10.61h3.83v15.9h-2.34q-.76 0-.96-.7l-.27-1.27q-.97.99-2.15 1.61-1.18.61-2.77.61-1.31 0-2.31-.44-1-.45-1.68-1.25-.68-.81-1.03-1.92-.35-1.1-.35-2.44v-10.1h3.83v10.1q0 1.46.68 2.26.67.8 2.02.8.99 0 1.86-.45.87-.44 1.64-1.21zm11.44 4.65v7.13q.65.79 1.42 1.11.77.33 1.62.33.88 0 1.59-.32.7-.32 1.2-.99.49-.68.76-1.72.26-1.05.26-2.5 0-2.62-.87-3.79-.86-1.18-2.49-1.18-1.1 0-1.92.51-.83.5-1.57 1.42m0-11.78v9.08q.96-1.01 2.13-1.6 1.17-.6 2.68-.6 1.37 0 2.48.54t1.89 1.56q.79 1.01 1.21 2.46.41 1.44.41 3.24 0 1.93-.48 3.51-.48 1.59-1.37 2.71t-2.15 1.74q-1.25.62-2.79.62-.74 0-1.34-.14-.61-.15-1.12-.42-.51-.26-.94-.64-.42-.38-.81-.84l-.17 1.07q-.09.4-.32.57-.22.17-.61.17h-2.53v-23.03zm16.79 13.25h7.22q0-.74-.21-1.4t-.63-1.16q-.42-.49-1.06-.78t-1.49-.29q-1.66 0-2.62.95-.95.94-1.21 2.68m9.76 2.31h-9.84q.09 1.22.43 2.11.34.9.9 1.48t1.33.87q.76.28 1.69.28t1.61-.21q.67-.22 1.18-.49.5-.26.88-.48.38-.21.74-.21.48 0 .71.35l1.1 1.4q-.64.74-1.43 1.25-.79.5-1.65.8t-1.75.43q-.89.12-1.73.12-1.65 0-3.08-.55t-2.48-1.63q-1.05-1.07-1.66-2.66-.6-1.59-.6-3.68 0-1.63.52-3.06.53-1.44 1.51-2.5.99-1.06 2.41-1.68t3.2-.62q1.5 0 2.77.48t2.19 1.4q.91.92 1.43 2.27.52 1.34.52 3.06 0 .86-.19 1.17-.18.3-.71.3m16.08-3.67h3.11q1.15 0 2-.29t1.42-.82q.56-.54.84-1.3.28-.77.28-1.72 0-.9-.28-1.62-.28-.73-.83-1.25-.56-.51-1.41-.78-.86-.27-2.02-.27h-3.11zm-4.17-11.27h7.28q2.25 0 3.89.52 1.64.53 2.71 1.48 1.07.94 1.59 2.26t.52 2.88q0 1.63-.54 2.99-.54 1.35-1.63 2.33-1.08.98-2.72 1.52-1.63.54-3.82.54h-3.11v7.89h-4.17zm22.41-.62v8.83q.93-.87 2.04-1.41 1.12-.54 2.62-.54 1.31 0 2.31.44 1.01.44 1.69 1.24.67.8 1.02 1.91t.35 2.44v10.12h-3.83v-10.12q0-1.46-.67-2.26-.66-.8-2.03-.8-.99 0-1.86.45t-1.64 1.23v11.5h-3.83v-23.03zm20.69 6.88q1.77 0 3.22.57 1.45.58 2.48 1.63t1.59 2.57q.55 1.52.55 3.4 0 1.89-.55 3.41-.56 1.52-1.59 2.59t-2.48 1.64-3.22.57q-1.78 0-3.24-.57t-2.49-1.64-1.59-2.59q-.57-1.52-.57-3.41 0-1.88.57-3.4.56-1.52 1.59-2.57t2.49-1.63q1.46-.57 3.24-.57m0 13.44q1.99 0 2.94-1.34.95-1.33.95-3.9t-.95-3.92-2.94-1.35q-2.01 0-2.98 1.35-.97 1.36-.97 3.92t.97 3.9 2.98 1.34m16.07 2.96q-2.07 0-3.18-1.17t-1.11-3.23v-8.89h-1.63q-.31 0-.52-.2-.22-.2-.22-.6v-1.52l2.56-.42.8-4.34q.08-.31.3-.48.21-.17.56-.17h1.98v5.01h4.25v2.72h-4.25v8.62q0 .75.36 1.17.37.41 1 .41.36 0 .6-.08.24-.09.42-.18t.32-.18q.14-.08.28-.08.17 0 .27.08.11.09.24.26l1.14 1.86q-.83.7-1.92 1.05-1.08.36-2.25.36m13.27-16.4q1.77 0 3.22.57 1.45.58 2.48 1.63t1.59 2.57.56 3.4q0 1.89-.56 3.41t-1.59 2.59-2.48 1.64-3.22.57q-1.78 0-3.24-.57-1.45-.57-2.48-1.64-1.04-1.07-1.6-2.59-.57-1.52-.57-3.41 0-1.88.57-3.4.56-1.52 1.6-2.57 1.03-1.05 2.48-1.63 1.46-.57 3.24-.57m0 13.44q1.99 0 2.94-1.34.95-1.33.95-3.9t-.95-3.92-2.94-1.35q-2.01 0-2.98 1.35-.97 1.36-.97 3.92t.97 3.9 2.98 1.34"/></svg>