<svg xmlns="http://www.w3.org/2000/svg" width="400" height="400" viewBox="0 0 400 400"><rect width="100%" height="100%" fill="#e8e8e8"/><path fill="#333333" d="M94.72 187.795h3.78v20.24h-3.78v-8.85h-9.5v8.85h-3.78v-20.24h3.78v8.7h9.5zm14.1 5.65q1.6 0 2.91.52t2.24 1.47 1.43 2.32q.51 1.38.51 3.07 0 1.71-.51 3.08-.5 1.37-1.43 2.34-.93.96-2.24 1.48t-2.91.52q-1.61 0-2.92-.52-1.32-.52-2.25-1.48-.93-.97-1.44-2.34t-.51-3.08q0-1.69.51-3.07.51-1.37 1.44-2.32t2.25-1.47q1.31-.52 2.92-.52m0 12.14q1.79 0 2.65-1.2.87-1.21.87-3.53 0-2.33-.87-3.54-.86-1.22-2.65-1.22-1.82 0-2.69 1.22-.88 1.23-.88 3.54t.88 3.52q.87 1.21 2.69 1.21m13.19 2.45h-3.46v-14.36h2.12q.67 0 .88.63l.22 1.06q.38-.42.79-.77.42-.35.88-.6.47-.25 1.01-.4t1.19-.15q1.35 0 2.23.74.87.73 1.31 1.95.33-.71.84-1.23.5-.51 1.1-.83.61-.32 1.28-.47.68-.16 1.37-.16 1.19 0 2.11.37.93.36 1.56 1.06t.96 1.71.33 2.31v9.14h-3.46v-9.14q0-1.37-.6-2.07-.61-.69-1.77-.69-.53 0-.99.18-.45.18-.79.53-.35.34-.54.86-.2.52-.2 1.19v9.14h-3.47v-9.14q0-1.44-.58-2.1t-1.7-.66q-.76 0-1.41.37t-1.21 1.02zm22.72-8.83h6.53q0-.68-.19-1.27-.19-.6-.57-1.04-.38-.45-.96-.71t-1.35-.26q-1.5 0-2.36.85-.86.86-1.1 2.43m8.82 2.08h-8.89q.09 1.11.39 1.91.31.81.82 1.33.5.53 1.19.79.7.26 1.54.26t1.44-.2q.61-.2 1.07-.43.45-.24.8-.44.34-.19.66-.19.44 0 .65.32l.99 1.26q-.57.67-1.29 1.12-.71.46-1.49.73-.78.28-1.58.39-.81.11-1.56.11-1.5 0-2.79-.5-1.29-.49-2.24-1.47-.95-.97-1.5-2.41-.54-1.43-.54-3.32 0-1.47.47-2.77.48-1.29 1.37-2.25t2.17-1.52 2.89-.56q1.36 0 2.51.44 1.14.43 1.97 1.26.83.84 1.29 2.05.47 1.21.47 2.76 0 .79-.16 1.06-.17.27-.65.27m30.06-3.37q0 2.22-.74 4.12-.73 1.9-2.07 3.28-1.35 1.39-3.24 2.17-1.89.77-4.2.77-2.29 0-4.18-.77-1.89-.78-3.25-2.17-1.35-1.38-2.09-3.28t-.74-4.12q0-2.23.74-4.13.74-1.89 2.09-3.28 1.36-1.38 3.25-2.16t4.18-.78q1.54 0 2.9.36t2.49 1.01q1.14.65 2.04 1.58t1.53 2.08.96 2.49.33 2.83m-3.85 0q0-1.67-.45-2.99t-1.27-2.25q-.83-.92-2.01-1.41t-2.67-.49q-1.48 0-2.67.49-1.18.49-2.01 1.41-.83.93-1.28 2.25t-.45 2.99q0 1.66.45 2.99.45 1.32 1.28 2.24.83.91 2.01 1.4 1.19.49 2.67.49 1.49 0 2.67-.49t2.01-1.4q.82-.92 1.27-2.24.45-1.33.45-2.99m11.09 10.12h-3.46v-11.76l-1.25-.2q-.4-.08-.65-.28-.24-.21-.24-.58v-1.42h2.14v-1.06q0-1.23.37-2.21t1.06-1.67q.7-.69 1.69-1.05 1-.36 2.24-.36 1 0 1.85.26l-.07 1.74q-.01.19-.11.31t-.26.19q-.16.06-.37.08t-.45.02q-.62 0-1.1.13-.48.14-.82.47-.33.32-.51.86-.17.54-.17 1.34v.95h3.73v2.47h-3.62zm10.04 0h-3.46v-11.76l-1.25-.2q-.4-.08-.65-.28-.24-.21-.24-.58v-1.42h2.14v-1.06q0-1.23.37-2.21t1.06-1.67q.7-.69 1.69-1.05t2.24-.36q.99 0 1.85.26l-.07 1.74q-.02.19-.11.31-.1.12-.26.19-.16.06-.37.08t-.45.02q-.62 0-1.1.13-.48.14-.82.47-.34.32-.51.86-.18.54-.18 1.34v.95h3.74v2.47h-3.62zm5.68-14.36h3.47v14.36h-3.47zm3.95-4.19q0 .45-.18.84-.19.39-.49.69-.3.29-.7.47-.41.17-.87.17-.45 0-.85-.17-.4-.18-.69-.47-.3-.3-.47-.69-.18-.39-.18-.84 0-.46.18-.87.17-.4.47-.7.29-.29.69-.47.4-.17.85-.17.46 0 .87.17.4.18.7.47.3.3.49.7.18.41.18.87m14.25 5.96-.91 1.26q-.15.2-.3.31t-.43.11q-.26 0-.52-.16-.25-.16-.6-.36t-.83-.36q-.48-.17-1.2-.17-.91 0-1.59.33-.69.33-1.15.95-.45.61-.67 1.49-.23.87-.23 1.98 0 1.15.25 2.04.24.9.7 1.51.47.61 1.12.92.66.32 1.49.32.82 0 1.33-.21.52-.2.87-.44.35-.25.6-.45.26-.2.59-.2.42 0 .63.32l.99 1.26q-.57.67-1.25 1.12-.67.46-1.39.73-.72.28-1.48.39-.77.11-1.52.11-1.33 0-2.51-.5-1.17-.49-2.06-1.45-.88-.95-1.39-2.33t-.51-3.14q0-1.58.45-2.93.46-1.35 1.34-2.34t2.19-1.55q1.3-.56 2.99-.56 1.61 0 2.82.52t2.18 1.48m5.03 3.76h6.52q0-.68-.19-1.27-.19-.6-.57-1.04-.37-.45-.96-.71-.58-.26-1.35-.26-1.49 0-2.36.85-.86.86-1.09 2.43m8.82 2.08h-8.89q.08 1.11.39 1.91.31.81.81 1.33.5.53 1.2.79.69.26 1.53.26t1.45-.2 1.06-.43q.46-.24.8-.44.34-.19.67-.19.43 0 .64.32l.99 1.26q-.57.67-1.28 1.12-.72.46-1.5.73-.77.28-1.58.39-.8.11-1.56.11-1.5 0-2.78-.5-1.29-.49-2.24-1.47-.96-.97-1.5-2.41-.55-1.43-.55-3.32 0-1.47.48-2.77.47-1.29 1.36-2.25t2.17-1.52 2.89-.56q1.36 0 2.51.44 1.15.43 1.97 1.26.83.84 1.3 2.05t.47 2.76q0 .79-.17 1.06t-.64.27m22.47-11.59-.94 1.78q-.17.29-.36.42-.19.14-.47.14-.29 0-.64-.22-.34-.22-.81-.48-.48-.27-1.12-.48-.63-.22-1.5-.22-.79 0-1.37.19-.59.19-.99.52-.4.34-.6.81-.19.47-.19 1.03 0 .71.4 1.19.4.47 1.05.81.66.33 1.5.6t1.72.57q.89.3 1.73.7t1.49 1.01q.66.6 1.06 1.49.4.88.4 2.14 0 1.37-.47 2.57-.47 1.19-1.37 2.08t-2.21 1.4q-1.3.51-2.98.51-.96 0-1.9-.18-.94-.19-1.8-.54t-1.62-.84q-.75-.49-1.34-1.1l1.1-1.8q.14-.2.37-.33.22-.13.47-.13.35 0 .76.28.41.29.97.64t1.31.64q.74.28 1.79.28 1.61 0 2.5-.76.88-.76.88-2.19 0-.8-.4-1.3-.4-.51-1.06-.85t-1.5-.58-1.7-.52q-.87-.28-1.71-.67t-1.5-1.02-1.06-1.58q-.4-.94-.4-2.33 0-1.1.44-2.15.45-1.05 1.29-1.87.84-.81 2.07-1.3t2.83-.49q1.79 0 3.3.56t2.58 1.57m5.82 9.51h6.52q0-.68-.19-1.27-.18-.6-.56-1.04-.38-.45-.96-.71t-1.35-.26q-1.5 0-2.36.85-.86.86-1.1 2.43m8.82 2.08h-8.89q.08 1.11.39 1.91.31.81.81 1.33.51.53 1.2.79t1.53.26 1.45-.2 1.07-.43q.45-.24.79-.44.35-.19.67-.19.43 0 .64.32l1 1.26q-.58.67-1.29 1.12-.71.46-1.49.73-.78.28-1.58.39-.81.11-1.56.11-1.5 0-2.79-.5-1.29-.49-2.24-1.47-.95-.97-1.5-2.41-.54-1.43-.54-3.32 0-1.47.47-2.77.48-1.29 1.37-2.25t2.17-1.52 2.89-.56q1.36 0 2.5.44 1.15.43 1.98 1.26.82.84 1.29 2.05t.47 2.76q0 .79-.17 1.06-.16.27-.64.27m8.19 6.97q-1.88 0-2.88-1.05-1-1.06-1-2.92v-8.02h-1.47q-.28 0-.47-.19-.2-.18-.2-.54v-1.37l2.31-.38.73-3.92q.07-.28.26-.44.2-.15.51-.15h1.79v4.52h3.84v2.47h-3.84v7.78q0 .67.33 1.05t.9.38q.32 0 .54-.08t.38-.16.29-.16q.12-.08.25-.08.15 0 .25.08t.21.23l1.04 1.68q-.76.63-1.74.95t-2.03.32m14.55-14.58h3.45v14.36h-2.11q-.69 0-.87-.63l-.24-1.15q-.88.9-1.94 1.45-1.07.55-2.51.55-1.17 0-2.08-.4-.9-.39-1.52-1.12-.61-.73-.93-1.73-.31-1-.31-2.21v-9.12h3.46v9.12q0 1.32.6 2.04.61.72 1.83.72.9 0 1.68-.4.79-.4 1.49-1.1zm10.33 4.2v6.44q.59.71 1.28 1 .69.3 1.5.3.79 0 1.42-.3.63-.29 1.07-.89t.68-1.52.24-2.16q0-1.26-.21-2.14-.2-.87-.58-1.42t-.92-.8q-.53-.25-1.22-.25-1.08 0-1.83.45-.76.46-1.43 1.29m-.46-3.57.28 1.33q.88-1 2-1.61 1.12-.62 2.63-.62 1.18 0 2.15.49t1.68 1.42 1.09 2.3q.39 1.36.39 3.13 0 1.61-.44 2.98-.43 1.37-1.24 2.38-.8 1.01-1.94 1.57-1.14.57-2.56.57-1.2 0-2.06-.37-.85-.37-1.52-1.03v5.88h-3.46v-19.05h2.11q.68 0 .89.63"/></svg>