<svg xmlns="http://www.w3.org/2000/svg" width="400" height="400" viewBox="0 0 400 400"><rect width="100%" height="100%" fill="#888888"/><path fill="#ffffff" d="M87.48 207.465h12.72v4.88H81.56v-31.81h5.92zm16.26-17.69h5.45v22.57h-5.45zm6.2-6.58q0 .7-.28 1.32-.29.62-.76 1.08-.48.46-1.11.74-.64.27-1.37.27-.7 0-1.33-.27-.63-.28-1.09-.74t-.73-1.08q-.28-.62-.28-1.32 0-.73.28-1.36.27-.64.73-1.1.46-.47 1.09-.74.63-.28 1.33-.28.73 0 1.37.28.63.27 1.11.74.47.46.76 1.1.28.63.28 1.36m20.86 6.58h4.29l-8.96 22.57h-4.92l-8.96-22.57h4.49q.62 0 1.02.28.41.29.54.73l4.36 12.06q.35 1.05.61 2.06.27 1.02.47 2.03.22-1.01.48-2.03.26-1.01.64-2.06l4.44-12.06q.16-.44.55-.73.4-.28.95-.28m7.35 0h5.45v22.57h-5.45zm6.2-6.58q0 .7-.29 1.32-.28.62-.75 1.08-.48.46-1.12.74-.63.27-1.36.27-.7 0-1.33-.27-.63-.28-1.09-.74t-.74-1.08q-.27-.62-.27-1.32 0-.73.27-1.36.28-.64.74-1.1.46-.47 1.09-.74.63-.28 1.33-.28.73 0 1.36.28.64.27 1.12.74.47.46.75 1.1.29.63.29 1.36m9.5 7.57.38 1.78q.68-.68 1.44-1.26.76-.59 1.61-.99.84-.41 1.81-.64t2.11-.23q1.85 0 3.28.62 1.43.63 2.39 1.76.95 1.14 1.45 2.71.49 1.57.49 3.46v14.37h-5.43v-14.37q0-2.06-.95-3.2-.94-1.13-2.88-1.13-1.41 0-2.64.64t-2.33 1.74v16.32h-5.43v-22.57h3.32q1.05 0 1.38.99m28.36 9.74q1.01 0 1.76-.27.75-.28 1.25-.76.49-.48.74-1.17.26-.68.26-1.49 0-1.67-1-2.65-1.01-.98-3.01-.98t-3 .98-1 2.65q0 .79.25 1.47t.75 1.18q.49.49 1.25.77.76.27 1.75.27m6.14 12.85q0-.66-.4-1.08-.39-.41-1.07-.64-.69-.24-1.6-.35t-1.93-.16q-1.03-.06-2.12-.1t-2.12-.18q-.9.51-1.46 1.19t-.56 1.59q0 .59.29 1.11.3.51.95.89.65.37 1.68.58 1.04.21 2.53.21 1.52 0 2.62-.23t1.82-.64q.71-.41 1.04-.97t.33-1.22m-1.08-22.81h6.49v2.02q0 .97-1.16 1.19l-2.03.37q.46 1.17.46 2.56 0 1.67-.67 3.02t-1.86 2.3q-1.18.95-2.8 1.46-1.62.52-3.49.52-.66 0-1.27-.07-.62-.06-1.21-.17-1.06.64-1.06 1.43 0 .68.63 1 .62.32 1.66.45 1.03.13 2.35.17 1.32.03 2.71.14 1.38.11 2.7.38 1.32.28 2.36.87 1.03.6 1.66 1.62t.63 2.63q0 1.49-.74 2.9t-2.13 2.51q-1.4 1.1-3.44 1.77-2.03.67-4.63.67-2.55 0-4.44-.49-1.89-.5-3.15-1.32-1.25-.83-1.87-1.91-.61-1.07-.61-2.24 0-1.58.95-2.65.96-1.07 2.63-1.71-.9-.46-1.43-1.23t-.53-2.02q0-.51.19-1.05t.55-1.06q.36-.53.91-1 .55-.48 1.3-.85-1.71-.93-2.69-2.47t-.98-3.6q0-1.68.67-3.03t1.87-2.31 2.84-1.46q1.64-.51 3.57-.51 1.45 0 2.73.3t2.33.87m27.39 5.12h3.7q1.67 0 2.91-.41 1.25-.42 2.05-1.16t1.2-1.75q.39-1.01.39-2.22 0-2.42-1.59-3.72-1.6-1.3-4.87-1.3h-3.79zm10.96 4.93 7.96 11.75h-5.34q-1.52 0-2.2-1.19l-6.69-10.18q-.38-.58-.83-.82t-1.33-.24h-2.53v12.43h-5.92v-31.81h9.71q3.23 0 5.55.67t3.81 1.88q1.48 1.21 2.19 2.89.7 1.69.7 3.71 0 1.61-.47 3.04-.48 1.43-1.37 2.59-.89 1.17-2.2 2.05t-2.98 1.38q.57.33 1.06.79.48.45.88 1.06m20.55-11.17q2.5 0 4.56.81t3.52 2.31 2.26 3.65q.79 2.16.79 4.82 0 2.68-.79 4.84-.8 2.16-2.26 3.67-1.46 1.52-3.52 2.34-2.06.81-4.56.81-2.53 0-4.6-.81-2.07-.82-3.53-2.34-1.47-1.51-2.27-3.67t-.8-4.84q0-2.66.8-4.82.8-2.15 2.27-3.65 1.46-1.5 3.53-2.31t4.6-.81m0 19.07q2.81 0 4.17-1.89 1.35-1.89 1.35-5.55 0-3.65-1.35-5.56-1.36-1.92-4.17-1.92-2.86 0-4.24 1.93-1.37 1.92-1.37 5.55t1.37 5.54q1.38 1.9 4.24 1.9m25.27-19.07q2.51 0 4.57.81t3.52 2.31 2.25 3.65q.8 2.16.8 4.82 0 2.68-.8 4.84-.79 2.16-2.25 3.67-1.46 1.52-3.52 2.34-2.06.81-4.57.81-2.53 0-4.59-.81-2.07-.82-3.53-2.34-1.47-1.51-2.27-3.67t-.8-4.84q0-2.66.8-4.82.8-2.15 2.27-3.65 1.46-1.5 3.53-2.31 2.06-.81 4.59-.81m0 19.07q2.82 0 4.17-1.89 1.36-1.89 1.36-5.55 0-3.65-1.36-5.56-1.35-1.92-4.17-1.92-2.86 0-4.23 1.93-1.38 1.92-1.38 5.55t1.38 5.54q1.37 1.9 4.23 1.9m20.73 3.85h-5.44v-22.57h3.33q1.05 0 1.38.99l.35 1.67q.6-.66 1.25-1.21t1.38-.95q.74-.39 1.59-.62.84-.23 1.86-.23 2.13 0 3.51 1.15 1.37 1.16 2.05 3.07.53-1.12 1.32-1.93.79-.8 1.74-1.3.95-.51 2.01-.75 1.07-.24 2.15-.24 1.87 0 3.32.57t2.44 1.67 1.51 2.68q.52 1.59.52 3.63v14.37H313v-14.37q0-2.15-.94-3.24-.95-1.09-2.78-1.09-.83 0-1.55.29-.71.28-1.25.82t-.85 1.35q-.31.82-.31 1.87v14.37h-5.45v-14.37q0-2.26-.91-3.3-.92-1.03-2.68-1.03-1.19 0-2.21.58-1.02.59-1.9 1.6z"/></svg>