<svg width="132" height="13" viewBox="0 0 132 13" fill="none" xmlns="http://www.w3.org/2000/svg">
<path fill-rule="evenodd" clip-rule="evenodd" d="M76.9349 0.116477C75.0031 0.555639 73.9117 1.79614 73.9141 3.54975C73.9155 4.59987 74.2246 5.34641 74.9054 5.94476C75.5579 6.51809 76.2433 6.83287 77.8594 7.30149C79.4051 7.74957 79.9358 7.99226 80.2541 8.3963C80.9841 9.32258 80.4053 10.7215 79.1524 11.0595C78.4769 11.2418 77.15 11.1373 76.6085 10.8592C76.0861 10.5908 75.5399 10.0036 75.3168 9.47056L75.1588 9.09305L74.4729 9.35476C73.4222 9.75587 73.4059 9.7637 73.4059 9.87449C73.4059 10.113 73.9726 11.1475 74.3345 11.5696C74.793 12.1043 76.0064 12.7392 76.8787 12.9007C78.1233 13.1311 79.6408 12.9512 80.6079 12.4586C81.2195 12.1471 81.9817 11.3578 82.2604 10.7473C82.6025 9.9979 82.5905 8.48492 82.2366 7.76012C81.75 6.76317 80.871 6.22724 78.641 5.56779C77.0662 5.1022 76.5843 4.87572 76.2012 4.42112C75.7767 3.91758 75.7269 3.43678 76.035 2.81669C76.3845 2.1132 76.9784 1.81006 78.0068 1.81006C79.1553 1.81006 79.8415 2.1792 80.2802 3.03328C80.3953 3.25759 80.5214 3.44102 80.5602 3.44102C80.5991 3.44102 80.9925 3.30674 81.4344 3.14266C82.1862 2.86355 82.2337 2.8268 82.1722 2.57183C82.0613 2.11309 81.3788 1.17518 80.908 0.834749C79.9111 0.113757 78.2596 -0.184816 76.9349 0.116477ZM0 6.48547V12.7918H0.924544H1.84909L1.87751 8.21135L1.90594 3.63086L3.59406 6.37881C4.52252 7.89016 5.42877 9.36422 5.60793 9.65453C5.95459 10.2161 6.23558 10.3443 6.96235 10.2722C7.30454 10.2383 7.39124 10.1204 8.86818 7.68151C9.7191 6.27617 10.6194 4.8083 10.8688 4.41959L11.3222 3.71284L11.3244 8.25234L11.3267 12.7918H12.3069H13.2871V6.48547V0.179104H12.2768H11.2665L8.98537 3.93128C7.73071 5.9951 6.66731 7.67085 6.62244 7.6553C6.53945 7.62671 5.47386 5.91192 3.24467 2.21954L2.01485 0.182475L1.00743 0.180843L0 0.179104V6.48547ZM19.023 1.94597C18.0481 4.36436 15.5841 10.4362 15.0518 11.7317L14.6164 12.7918H15.6801H16.7439L17.3299 11.2704L17.9158 9.7488L20.802 9.75054L23.6881 9.75217L24.2757 11.272L24.8633 12.7918H25.9351H27.0067L26.7814 12.221C26.6574 11.9071 26.2238 10.8428 25.8178 9.85612C24.981 7.82253 23.8045 4.94433 22.6512 2.10907L21.8661 0.179104H20.8007H19.7353L19.023 1.94597ZM28.4257 6.48547V12.7918H29.4059H30.3861V10.3454V7.89897H31.5817C32.7038 7.89897 32.7865 7.91397 32.9291 8.14361C33.0127 8.27822 33.6633 9.37814 34.3747 10.5881L35.6683 12.7878L36.7847 12.7899C37.3986 12.791 37.901 12.7736 37.901 12.7513C37.901 12.729 37.1969 11.5467 36.3364 10.1239L34.7718 7.537L35.2993 7.27453C35.9945 6.92866 36.7485 6.0798 36.9809 5.38131C37.0918 5.04795 37.1636 4.4969 37.1612 3.99815C37.1536 2.48647 36.5328 1.39101 35.3226 0.75418C34.3752 0.255542 33.7981 0.179104 30.9798 0.179104H28.4257V6.48547ZM39.5347 6.48547V12.7918H40.5149H41.495V9.62539C41.495 6.68749 41.5081 6.4696 41.6758 6.60812C41.8733 6.77111 43.5127 8.67465 45.6202 11.1881L46.9649 12.7918H48.2186C49.3947 12.7918 49.463 12.7801 49.3227 12.6025C49.1066 12.3289 45.0411 7.5233 44.4058 6.79046C44.1105 6.44992 43.8862 6.12405 43.9072 6.06621C43.9391 5.97879 45.0511 4.72773 48.7773 0.586843L49.1442 0.179104H47.8962H46.6483L44.2478 2.87355C42.9274 4.35544 41.768 5.63357 41.6712 5.71381C41.5098 5.84755 41.495 5.62291 41.495 3.01936V0.179104H40.5149H39.5347V6.48547ZM50.7525 6.48547V12.7918H54.6232H58.494L58.4623 11.8948L58.4307 10.9978L55.5718 10.9688L52.7129 10.9398V9.09315V7.24659H55.1634H57.6139V6.37881V5.51103L55.1906 5.48178L52.7673 5.45253L52.7374 3.74003L52.7073 2.02752H55.4874H58.2673V1.10331V0.179104H54.5099H50.7525V6.48547ZM59.4653 1.10331V2.02752H61.1535H62.8416V7.41392V12.8003L63.7946 12.7689L64.7475 12.7375L64.7757 7.3825L64.804 2.02752H66.4911H68.1782V1.10331V0.179104H63.8218H59.4653V1.10331ZM83.3168 1.10331V2.02752H85.0049H86.6931V7.40968V12.7918H87.7005H88.7079L88.6787 7.40968L88.6494 2.02752H90.3941H92.1386V1.10331V0.179104H87.7277H83.3168V1.10331ZM93.6634 6.47623V12.7918H94.6436H95.6238V10.3454V7.89897H96.8724C98.0575 7.89897 98.1274 7.91136 98.2464 8.14361C98.3155 8.27822 98.9598 9.37912 99.6783 10.59L100.985 12.7918H102.129H103.273L103.076 12.4928C102.228 11.2006 100.089 7.5183 100.171 7.49101C100.588 7.35227 101.504 6.67575 101.799 6.28802C102.539 5.31684 102.697 3.60879 102.161 2.37872C101.84 1.64164 100.951 0.820831 100.116 0.490725C99.5314 0.259673 99.2978 0.240537 96.5767 0.202046L93.6634 0.160728V6.47623ZM104.865 6.32096C104.856 9.70052 104.844 12.5269 104.838 12.6016C104.829 12.7075 105.675 12.7438 108.666 12.7661L112.505 12.7947V11.869V10.9434H109.687H106.869L106.801 10.6036C106.713 10.1676 106.715 8.91995 106.804 7.98052L106.873 7.24659H109.308H111.743V6.37881V5.51103L109.265 5.48178L106.787 5.45253L106.75 5.07198C106.729 4.86267 106.746 4.09286 106.788 3.36132L106.863 2.03122L109.602 2.00219L112.342 1.97316V1.10331V0.233469L108.611 0.204873L104.881 0.176277L104.865 6.32096ZM114.465 6.48547V12.7918H118.336H122.207L122.175 11.8948L122.144 10.9978L119.285 10.9688L116.426 10.9398V9.09522V7.25072L118.903 7.22147L121.381 7.19222L121.413 6.35163L121.445 5.51103L118.962 5.48178L116.48 5.45253L116.45 3.74003L116.42 2.02752H119.2H121.98V1.10331V0.179104H118.223H114.465V6.48547ZM123.178 1.10331V2.02752H124.866H126.554V7.40968V12.7918H127.535H128.515V7.40968V2.02752H130.257H132V1.10331V0.179104H127.589H123.178V1.10331ZM33.9549 2.19584C34.7727 2.53692 35.1782 3.1257 35.1782 3.97217C35.1782 4.91508 34.8358 5.47591 34.0347 5.84505C33.6744 6.01108 33.321 6.0462 31.9926 6.04816L30.3861 6.05055V4.03904V2.02752H31.9688C33.1511 2.02752 33.6537 2.07014 33.9549 2.19584ZM99.2522 2.18507C99.7949 2.37829 100.075 2.6362 100.32 3.16919C100.669 3.92704 100.56 4.83516 100.055 5.38534C99.5511 5.93377 99.0837 6.04555 97.2847 6.04816L95.6238 6.05055V4.03904V2.02752L97.2302 2.03231C98.2977 2.03546 98.976 2.08667 99.2522 2.18507ZM21.8218 5.04643C22.3529 6.40599 22.8119 7.62845 22.842 7.76305L22.8967 8.0077H20.8147C19.3577 8.0077 18.7327 7.97138 18.7327 7.88657C18.7327 7.71554 20.7358 2.57237 20.802 2.57357C20.8319 2.574 21.2909 3.68686 21.8218 5.04643Z" fill="black"/>
</svg>
