<svg xmlns="http://www.w3.org/2000/svg" width="400" height="400" viewBox="0 0 400 400"><rect width="100%" height="100%" fill="#fafafa"/><path fill="#333333" d="m96.345 186.415-1.24 2.34q-.22.39-.47.57-.25.17-.62.17-.39 0-.84-.28-.46-.29-1.08-.64-.63-.35-1.48-.64-.84-.29-1.98-.29-1.04 0-1.82.25-.77.25-1.3.7-.53.44-.79 1.06t-.26 1.36q0 .95.53 1.57.53.63 1.4 1.08.87.44 1.98.79t2.27.75q1.17.4 2.28.93 1.11.52 1.98 1.33.87.8 1.39 1.97.53 1.16.53 2.83 0 1.81-.62 3.39-.62 1.59-1.81 2.76-1.19 1.18-2.91 1.85-1.73.68-3.95.68-1.27 0-2.51-.25t-2.38-.72q-1.14-.46-2.14-1.11-.99-.64-1.77-1.44l1.46-2.39q.19-.25.48-.43.3-.18.63-.18.46 0 1 .38t1.28.84q.74.47 1.73.85t2.37.38q2.13 0 3.3-1.01 1.16-1.01 1.16-2.9 0-1.05-.53-1.72-.52-.66-1.39-1.12-.87-.45-1.98-.77-1.11-.31-2.26-.68t-2.26-.89-1.98-1.35-1.39-2.08q-.53-1.25-.53-3.08 0-1.46.58-2.85.59-1.39 1.7-2.46t2.73-1.72q1.63-.65 3.74-.65 2.37 0 4.37.74 1.99.74 3.4 2.08m8.66-3.26v10.54q1.11-1.03 2.44-1.68t3.13-.65q1.55 0 2.75.53 1.21.53 2.01 1.48.81.95 1.22 2.28.42 1.32.42 2.91v12.08h-4.57v-12.08q0-1.74-.8-2.69-.79-.95-2.42-.95-1.18 0-2.22.53-1.04.54-1.96 1.46v13.73h-4.57v-27.49zm19.9 15.82h8.63q0-.89-.25-1.68-.25-.78-.75-1.38-.5-.59-1.27-.93t-1.79-.34q-1.98 0-3.11 1.13-1.14 1.12-1.46 3.2m11.66 2.75h-11.75q.11 1.46.52 2.53.41 1.06 1.07 1.76.67.69 1.58 1.03.92.34 2.03.34t1.92-.25q.8-.26 1.4-.58.6-.31 1.06-.57.45-.26.87-.26.58 0 .86.42l1.31 1.67q-.76.89-1.7 1.49-.95.6-1.97.96-1.03.36-2.09.51-1.07.15-2.07.15-1.98 0-3.68-.66t-2.96-1.94q-1.26-1.29-1.98-3.18-.72-1.9-.72-4.4 0-1.94.63-3.65t1.8-2.98q1.18-1.27 2.87-2.01t3.82-.74q1.8 0 3.31.58 1.52.57 2.61 1.67t1.71 2.7.62 3.66q0 1.03-.22 1.39t-.85.36m4.55-18.57h4.57v27.49h-4.57zm15.04 27.49h-4.57v-15.54l-1.64-.26q-.54-.11-.87-.38-.32-.27-.32-.77v-1.86h2.83v-1.41q0-1.63.49-2.92.49-1.3 1.41-2.2.91-.91 2.23-1.39 1.31-.48 2.96-.48 1.31 0 2.44.35l-.09 2.29q-.02.26-.15.42t-.34.24q-.22.08-.49.11-.28.03-.6.03-.81 0-1.45.17-.64.18-1.08.61-.44.44-.68 1.15-.23.71-.23 1.77v1.26h4.94v3.25h-4.79zm40.83-13.38q0 2.95-.98 5.41t-2.76 4.23q-1.77 1.78-4.27 2.76t-5.55.98h-10.19v-26.75h10.19q3.05 0 5.55.99t4.27 2.76q1.78 1.76 2.76 4.22t.98 5.4m-5.11 0q0-2.2-.58-3.95-.58-1.74-1.68-2.96-1.1-1.21-2.67-1.85-1.56-.65-3.52-.65h-5.2v18.83h5.2q1.96 0 3.52-.65 1.57-.64 2.67-1.86 1.1-1.21 1.68-2.96.58-1.74.58-3.95m8.92-5.6h4.59v18.98h-4.59zm5.22-5.53q0 .59-.24 1.11t-.64.9q-.4.39-.93.62-.54.24-1.15.24-.59 0-1.12-.24-.53-.23-.92-.62-.39-.38-.62-.9t-.23-1.11q0-.61.23-1.15t.62-.92q.39-.39.92-.62.53-.24 1.12-.24.61 0 1.15.24.53.23.93.62.4.38.64.92t.24 1.15m16.65 7.58-1.04 1.65q-.18.3-.39.42-.2.12-.51.12-.34 0-.72-.19-.38-.18-.88-.42-.49-.23-1.13-.41-.64-.19-1.51-.19-1.35 0-2.12.58-.77.57-.77 1.49 0 .62.4 1.03.4.42 1.06.73.65.32 1.48.57.84.25 1.7.54.86.3 1.69.68t1.49.96 1.05 1.4q.4.81.4 1.96 0 1.37-.49 2.52-.49 1.16-1.45 2t-2.38 1.31q-1.41.48-3.26.48-.98 0-1.92-.18-.93-.18-1.79-.49t-1.59-.74-1.29-.92l1.06-1.74q.2-.32.48-.48.27-.17.7-.17.42 0 .8.24t.88.52q.5.27 1.18.51.67.25 1.71.25.81 0 1.4-.2.58-.19.96-.51.38-.31.55-.73.18-.41.18-.86 0-.66-.4-1.09t-1.05-.74q-.66-.31-1.5-.56t-1.72-.55-1.72-.69q-.85-.4-1.5-1.01-.66-.61-1.06-1.5-.39-.89-.39-2.15 0-1.16.46-2.22.46-1.05 1.36-1.84.9-.78 2.24-1.26 1.34-.47 3.1-.47 1.96 0 3.57.65t2.68 1.7m8.21 3.5v8.51q.78.94 1.7 1.33.91.39 1.98.39 1.04 0 1.87-.39t1.42-1.18q.58-.8.89-2.01.32-1.21.32-2.86 0-1.66-.27-2.82t-.77-1.88-1.21-1.05-1.62-.33q-1.42 0-2.42.6t-1.89 1.69m-.61-4.72.37 1.76q1.17-1.31 2.65-2.13 1.48-.81 3.48-.81 1.55 0 2.84.65 1.28.64 2.22 1.87.93 1.23 1.44 3.04.51 1.8.51 4.13 0 2.13-.58 3.94-.57 1.82-1.63 3.15-1.07 1.33-2.58 2.08-1.5.75-3.37.75-1.59 0-2.72-.49t-2.02-1.36v7.77h-4.57v-25.18h2.8q.88 0 1.16.83m17.11-9.34h4.57v27.49h-4.57zm19.17 22.59v-3.2q-1.98.09-3.33.34t-2.16.64q-.82.39-1.17.9-.35.52-.35 1.13 0 1.21.71 1.72.71.52 1.86.52 1.41 0 2.43-.51 1.03-.51 2.01-1.54m-9.66-9.97-.81-1.47q3.27-2.99 7.88-2.99 1.67 0 2.98.54 1.31.55 2.22 1.52t1.38 2.32.47 2.96v11.99h-2.07q-.65 0-1-.19-.35-.2-.56-.79l-.4-1.37q-.73.65-1.41 1.14t-1.42.82-1.59.51q-.84.18-1.86.18-1.2 0-2.22-.33-1.01-.32-1.75-.97t-1.15-1.61-.41-2.24q0-.72.24-1.43t.79-1.36 1.41-1.22q.87-.57 2.14-1t2.95-.69q1.69-.27 3.85-.33v-1.11q0-1.9-.81-2.82-.82-.91-2.35-.91-1.11 0-1.84.25-.73.26-1.29.59-.55.32-1.01.58-.45.26-1.01.26-.48 0-.81-.25t-.54-.58m31.99-4.11h3.66l-10.34 24.2q-.2.48-.53.73-.32.25-.99.25h-3.4l3.55-7.62-7.68-17.56h4.02q.54 0 .84.26.31.26.45.59l4.04 9.84q.2.5.34 1t.27 1.02q.16-.52.33-1.03t.37-1.01l3.81-9.82q.15-.37.49-.61t.77-.24m17.08.11-2.41-.43q.28-1.92 1.07-3.37.8-1.45 1.99-2.43 1.2-.97 2.74-1.46t3.32-.49q1.85 0 3.34.53t2.54 1.46q1.06.94 1.62 2.19.57 1.26.57 2.72 0 1.28-.29 2.25t-.82 1.69q-.54.73-1.34 1.23-.79.49-1.79.83 2.41.76 3.59 2.31t1.18 3.9q0 2-.74 3.54-.74 1.53-1.99 2.58-1.26 1.04-2.92 1.58-1.65.54-3.5.54-2.02 0-3.52-.47-1.5-.46-2.61-1.37-1.11-.9-1.88-2.22-.78-1.31-1.34-3.03l2.02-.83q.8-.33 1.49-.18.69.16 1.01.75.33.65.73 1.28t.95 1.12q.56.49 1.31.79.74.31 1.78.31 1.17 0 2.04-.38.86-.38 1.45-.99.58-.61.87-1.36.28-.75.28-1.51 0-.96-.2-1.75-.2-.78-.85-1.34-.65-.55-1.86-.87-1.21-.31-3.25-.31v-3.26q1.69-.02 2.8-.31 1.11-.3 1.76-.83.66-.52.92-1.26t.26-1.63q0-1.89-1.06-2.87-1.05-.98-2.81-.98-.81 0-1.5.23-.68.23-1.23.65-.54.42-.91.97-.37.56-.56 1.22-.31.85-.82 1.13t-1.43.13"/></svg>