<svg width="104" height="35" viewBox="0 0 104 35" fill="none" xmlns="http://www.w3.org/2000/svg">
<g clip-path="url(#clip0_22199_235)">
<g clip-path="url(#clip1_22199_235)">
<path fill-rule="evenodd" clip-rule="evenodd" d="M4.54083 0.171925C2.67706 0.601186 0.943521 2.24724 0.305139 4.19407C-0.012081 5.16122 -0.126932 29.0865 0.179775 30.2894C0.759023 32.5604 2.68902 34.4059 4.94136 34.8428C6.59658 35.1637 27.9966 34.9481 28.8661 34.6017C30.8418 33.8146 32.2656 32.1768 32.7948 30.0826C33.1095 28.8371 33.0438 5.50046 32.7228 4.51167C32.1043 2.60647 30.7575 1.14679 28.8953 0.363259L28.1068 0.0315945L16.74 0.00595407C7.44982 -0.0151368 5.22113 0.0151913 4.54083 0.171925ZM18.1888 5.79008C19.0904 6.34161 21.2055 7.62292 22.8891 8.63762C24.5726 9.65218 25.9031 10.5288 25.8458 10.5857C25.4056 11.022 16.4152 16.3712 16.2403 16.3008C15.9295 16.1757 7.24232 10.8417 7.05138 10.6588C6.92852 10.541 7.69897 10.0179 10.2709 8.47206C12.1305 7.35453 14.2432 6.07143 14.966 5.6208C16.5774 4.61616 16.2405 4.59852 18.1888 5.79008ZM26.8942 17.435C26.8599 23.5681 26.8712 23.4464 26.268 24.1856C25.8797 24.6616 18.5248 29.2606 17.4785 29.6817C17.2802 29.7615 17.2655 29.2967 17.297 23.9292L17.3313 18.0898L22.062 15.0989C24.6639 13.4538 26.8223 12.1046 26.8584 12.1005C26.8946 12.0965 26.9107 14.497 26.8942 17.435ZM10.0382 14.678C11.7366 15.7375 13.6473 16.9386 14.2841 17.347L15.4419 18.0898L15.4312 23.8019C15.4253 26.9436 15.3963 29.5392 15.367 29.5699C15.3188 29.6205 13.8666 28.7725 8.60673 25.6226C7.25126 24.8108 6.76807 24.4443 6.5042 24.0274L6.16162 23.4864L6.12456 17.8448L6.08737 12.2032L6.51879 12.4774C6.75598 12.6282 8.33971 13.6185 10.0382 14.678Z" fill="#2563EB"/>
</g>
<g clip-path="url(#clip2_22199_235)">
<path fill-rule="evenodd" clip-rule="evenodd" d="M78.2798 27.9398C77.7702 25.1436 78.9892 22.7778 81.3682 21.9451C84.6153 20.8087 87.6575 22.679 88.0405 26.0472C88.1195 26.7418 88.2221 27.1339 88.0635 27.3544C87.8246 27.6864 86.9932 27.629 84.5957 27.629H81.1719L81.2577 28.0212C81.6193 29.6769 84.3503 30.3872 85.0127 28.9979C85.1429 28.7247 85.1974 28.7153 86.6395 28.7153H88.1315L88.0131 29.0129C86.238 33.4753 79.1459 32.6932 78.2798 27.9398ZM84.3591 24.1617C84.7609 24.4205 85.3734 25.4832 85.2104 25.6389C85.1731 25.6748 84.2587 25.689 83.1787 25.6707L81.2152 25.6374L81.3823 25.1733C81.8151 23.9708 83.2865 23.4708 84.3591 24.1617Z" fill="#3F3F46"/>
<path fill-rule="evenodd" clip-rule="evenodd" d="M67.8323 29.4693C66.2519 26.6353 67.5609 22.931 70.4954 21.9328C74.0766 20.7148 77.1308 23.0667 77.1483 27.0556L77.1508 27.629H73.6679H70.1849L70.2706 28.0212C70.6331 29.6806 73.2349 30.3721 73.9966 29.0116C74.1584 28.7226 74.1996 28.7153 75.6562 28.7153H77.1498L76.9155 29.3045C75.5551 32.7262 69.7078 32.8323 67.8323 29.4693ZM73.3721 24.1617C73.7739 24.4205 74.3864 25.4832 74.2234 25.6389C74.1861 25.6748 73.2717 25.689 72.1917 25.6707L70.2282 25.6374L70.3953 25.1733C70.8281 23.9708 72.2994 23.4708 73.3721 24.1617Z" fill="#3F3F46"/>
<path fill-rule="evenodd" clip-rule="evenodd" d="M63.6587 23.2233C63.9399 22.7365 64.4743 22.2805 65.0903 22.0022C65.5024 21.8161 65.9521 21.7165 66.3848 21.7158L67.0478 21.7146V23.0242V24.3338L66.1322 24.2829C65.3548 24.2395 65.132 24.2742 64.6558 24.5122C64.3421 24.6689 64.1199 24.7797 63.9614 24.946C63.576 25.3505 63.5676 26.0832 63.5374 28.6031L63.4998 31.7328H61.9904H60.4808V26.784V21.8353H61.9963H63.5117L63.5155 22.65C63.5187 23.3107 63.5457 23.4191 63.6587 23.2233Z" fill="#3F3F46"/>
<path fill-rule="evenodd" clip-rule="evenodd" d="M54.0402 21.8353V20.6282V19.4212H55.6271H57.2142L57.1741 20.6285L57.1342 21.8358L58.0498 21.8355L58.9654 21.8353V22.9216V24.0079L58.0498 24.0078L57.1342 24.0077L57.1705 26.6614C57.1978 28.6611 57.2028 29.327 57.5133 29.5043C57.6721 29.5949 57.9109 29.5577 58.2735 29.5057L58.8156 29.428L58.9516 30.0345C59.348 31.8006 59.3014 31.8527 57.3237 31.8517C54.6522 31.8503 54.0402 30.8974 54.0402 26.7399V24.0079H53.3456H52.651V22.9216V21.8353H53.3456H54.0402Z" fill="#3F3F46"/>
<path fill-rule="evenodd" clip-rule="evenodd" d="M41.4114 22.4161C41.4114 20.4832 42.9985 18.9114 45.3264 18.539C48.6197 18.012 51.7815 19.6891 51.9279 22.0402L51.9564 22.4991H50.4515H48.9466L48.8253 22.137C48.3412 20.6922 45.5216 20.3371 44.6949 21.6168C44.0568 22.6045 44.7212 23.1658 47.4367 23.9331C51.0179 24.945 51.9912 25.8621 51.9254 28.1629C51.7788 33.2922 41.7981 33.2728 41.0878 28.1419L41 27.5082H42.4726C43.5405 27.5082 43.9585 27.5497 43.9938 27.6591C44.0205 27.7422 44.0755 27.9552 44.116 28.1326C44.5705 30.1232 48.8624 29.9937 48.8624 27.9895C48.8624 27.1932 48.2819 26.8457 45.9546 26.2487C42.518 25.3672 41.4114 24.4337 41.4114 22.4161Z" fill="#3F3F46"/>
<path fill-rule="evenodd" clip-rule="evenodd" d="M41.5377 16.1623V9.58114V3L43.6378 3.03307L45.7378 3.06615L46.3576 4.57492C47.8637 8.24111 49.2413 11.699 49.2413 11.8133C49.2413 12.0461 49.4765 11.9388 49.5637 11.6661C49.6562 11.3767 51.3062 7.25872 52.3928 4.60509L53.0477 3.00579H55.1055H57.1634L57.1488 9.58404L57.1342 16.1623H55.5872H54.0402L54.036 11.8472L54.0317 7.53211L52.2364 11.8467L50.441 16.1614L49.3676 16.1611L48.2941 16.1608L46.4974 11.8465L44.7009 7.53211L44.6978 11.8472L44.6949 16.1623H43.1163H41.5377Z" fill="#3F3F46"/>
<path fill-rule="evenodd" clip-rule="evenodd" d="M58.9117 8.52597C59.2968 7.44593 60.2257 6.66426 61.5202 6.33113C62.9933 5.95212 65.311 6.17421 66.2803 6.78738C67.6679 7.665 67.8055 8.19162 67.8055 12.6208V16.1623H66.4164C65.6523 16.1623 64.9846 16.1634 64.9325 16.1646C64.8803 16.1658 64.8047 15.8535 64.7643 15.4705C64.7239 15.0876 64.6813 14.8419 64.6696 14.9247C64.393 16.8857 59.847 16.8249 58.754 14.8458C57.4326 12.4529 58.9052 10.7308 62.6262 10.3174C64.4637 10.1132 64.6492 10.0362 64.6464 9.47879C64.6409 8.4072 62.9023 7.99729 62.0455 8.86562L61.6229 9.29387L60.1678 9.31825C59.246 9.33371 58.8689 9.35007 58.7721 9.20062C58.7003 9.08973 58.7828 8.88755 58.9117 8.52597ZM64.4675 13.491C63.8558 14.6216 61.3649 14.4212 61.3649 13.2413C61.3649 12.5333 61.7442 12.2403 62.8913 12.0624C63.4062 11.9825 63.998 11.8774 64.2063 11.8287L64.5852 11.7404L64.6227 12.4377C64.6469 12.8896 64.5924 13.2603 64.4675 13.491Z" fill="#3F3F46"/>
<path fill-rule="evenodd" clip-rule="evenodd" d="M73.3116 7.24894C73.7581 6.75044 74.2488 6.4394 74.8769 6.25677C75.0509 6.2062 75.4633 6.16009 75.7932 6.15442L76.3931 6.14404V7.44388V8.74383L75.4775 8.70388C73.201 8.60442 72.857 9.19864 72.857 13.2307V16.1623H71.2784H69.6998V11.2135V6.26474H71.2784H72.857V7.01068V7.75661L73.3116 7.24894Z" fill="#3F3F46"/>
<path fill-rule="evenodd" clip-rule="evenodd" d="M77.4034 16.1623V9.58404V3.00579H78.9169H80.4303L80.4639 6.47524L80.4974 9.9447L82.1298 8.10472L83.7622 6.26474H85.4448C86.3703 6.26474 87.1275 6.29516 87.1275 6.33233C87.1275 6.36939 86.2804 7.29831 85.2449 8.39646L83.3624 10.393L84.317 11.799C84.8419 12.5724 85.7176 13.8417 86.2627 14.6198C86.8077 15.3979 87.2538 16.0632 87.2538 16.0984C87.2538 16.1336 86.4907 16.1623 85.5581 16.1623H83.8625L82.5747 14.3819C81.4467 12.8226 81.1922 12.4369 81.0062 12.4651C80.9288 12.4768 80.8633 12.5602 80.7516 12.6605C80.4435 12.9371 80.4343 12.9919 80.4343 14.5538V16.1623H78.9188H77.4034Z" fill="#3F3F46"/>
<path fill-rule="evenodd" clip-rule="evenodd" d="M91.2869 16.3146C85.9592 15.5264 85.3417 7.92294 90.4741 6.30651C93.9454 5.21319 96.9712 7.59475 96.9769 11.4247L96.9779 12.0584H93.505H90.0321V12.3346C90.0321 14.0852 93.3517 14.9886 93.8849 13.383C93.961 13.1537 96.9779 12.9875 96.9779 13.2126C96.9779 15.006 93.8748 16.6975 91.2869 16.3146ZM93.065 8.54154C93.5246 8.77642 93.8697 9.23183 94.0151 9.79527L94.1007 10.1272H92.0752H90.0498L90.1628 9.75025C90.5355 8.50823 91.8932 7.94274 93.065 8.54154Z" fill="#3F3F46"/>
<path fill-rule="evenodd" clip-rule="evenodd" d="M98.8722 6.26474V4.99351V3.7224L100.356 3.75632L101.84 3.79036L101.876 5.02755L101.912 6.26474H102.855H103.797V7.35106V8.43737H102.85H101.903V11.0138C101.903 14.0128 101.914 14.0437 102.992 13.9703L103.593 13.9293L103.757 14.7139C103.847 15.1454 103.95 15.618 103.986 15.7641C104.266 16.8981 100.201 16.3167 99.315 15.0961L98.9354 14.573L98.8977 11.5113L98.8601 8.44957L98.2032 8.41335L97.5462 8.37702L97.5097 7.32088L97.4732 6.26474H98.1727H98.8722Z" fill="#3F3F46"/>
<path fill-rule="evenodd" clip-rule="evenodd" d="M90.1584 21.8353V20.6282V19.4212H91.737H93.3156V20.6282V21.8353H94.2627H95.2099V22.9216V24.0079H94.2627H93.3156V26.5944C93.3156 29.6124 93.3245 29.6382 94.335 29.5101L94.9308 29.4345L95.1424 30.3438C95.475 31.7724 95.4304 31.8131 93.505 31.8381C90.798 31.8732 90.1584 30.8804 90.1584 26.6441V24.0079H89.527H88.8955V22.9216V21.8353H89.527H90.1584Z" fill="#3F3F46"/>
</g>
</g>
<defs>
<clipPath id="clip0_22199_235">
<rect width="104" height="35" fill="white"/>
</clipPath>
<clipPath id="clip1_22199_235">
<rect width="33" height="35" fill="white"/>
</clipPath>
<clipPath id="clip2_22199_235">
<rect width="63" height="29" fill="white" transform="translate(41 3)"/>
</clipPath>
</defs>
</svg>
